# xmcd
#
# Track frame offsets: 
#        150
#        16653
#        35091
#        47148
#        67460
#        89239
#        107658
#        122353
#        135175
#        148619
#        168081
#        181811
#        195405
#
# Disc length: 2758 seconds
#
# Revision: 0
# Processed by: cddbd v1.5.2PL0 Copyright (c) Steve Scherf et al.
# Submitted via: ExactAudioCopy v0.99pb5
#
DISCID=ae0ac40d
DTITLE=Rainer With Joey Burns and John Convertino - Roll Back The Years
DYEAR=2011
DGENRE=Blues
TTITLE0=Roll Back The Years
TTITLE1=The Mountain
TTITLE2=Hard To Remember
TTITLE3=The Oasis
TTITLE4=Di Lantin
TTITLE5=The Farm
TTITLE6=Cheer Down
TTITLE7=Now I Know Better
TTITLE8=(Tasted Better Going Down) Valerie
TTITLE9=Sea Of Heartbreak
TTITLE10=My Honey
TTITLE11=Tenish
TTITLE12=This Little Planet
EXTD=
EXTT0=
EXTT1=
EXTT2=
EXTT3=
EXTT4=
EXTT5=
EXTT6=
EXTT7=
EXTT8=
EXTT9=
EXTT10=
EXTT11=
EXTT12=
PLAYORDER=
